<?xml version="1.0" standalone="no"?>
<!DOCTYPE svg PUBLIC "-//W3C//DTD SVG 20010904//EN"
 "http://www.w3.org/TR/2001/REC-SVG-20010904/DTD/svg10.dtd">
<svg version="1.0" xmlns="http://www.w3.org/2000/svg"
 width="194.000000pt" height="194.000000pt" viewBox="0 0 194.000000 194.000000"
 preserveAspectRatio="xMidYMid meet">
<metadata>
Created by potrace 1.14, written by Peter Selinger 2001-2017
</metadata>
<g transform="translate(0.000000,194.000000) scale(0.100000,-0.100000)"
fill="#000000" stroke="none">
<path d="M150 1118 c0 -499 2 -524 54 -611 33 -58 96 -114 165 -146 51 -24 67
-26 176 -26 116 0 123 1 186 32 117 58 189 160 209 298 5 39 10 260 10 493 0
415 0 422 -20 422 -20 0 -20 -7 -20 -452 0 -494 -3 -518 -57 -607 -35 -56
-112 -115 -178 -138 -32 -10 -81 -16 -135 -16 -72 0 -95 5 -150 30 -79 36
-149 109 -182 191 -22 56 -23 65 -26 525 -3 398 -5 467 -18 467 -12 0 -14 -67
-14 -462z"/>
<path d="M1475 1011 c-73 -19 -150 -76 -183 -136 l-17 -30 -5 79 c-3 51 -10
81 -17 84 -10 3 -13 -68 -13 -332 0 -279 2 -336 14 -336 11 0 14 42 18 223 5
244 9 263 69 332 38 42 112 81 175 91 90 13 181 -41 203 -121 6 -24 11 -137
11 -282 0 -209 2 -243 15 -243 13 0 15 36 15 267 0 251 -1 269 -21 311 -31 64
-82 94 -167 98 -37 2 -80 0 -97 -5z"/>
</g>
</svg>
